<svg width="299" height="64" fill="none" xmlns="http://www.w3.org/2000/svg"><path d="M32.745 43.575c.165-.518.52-.952 1.063-1.3.542-.394 1.115-.603 1.72-.628.185-.008.465.027.84.105 1.363.316 2.069 1.078 2.118 2.286.044 1.068-.375 2.178-1.259 3.331.108.368.168.691.18.97a4.294 4.294 0 0 1-.344 1.828 5.313 5.313 0 0 1-.977 1.715c-.108.749-.29 1.408-.547 1.977-.21.52-.558 1.139-1.04 1.857-.527.766-1.062 1.323-1.606 1.67-.5.3-1.208.608-2.126.925a5.328 5.328 0 0 1-1.04 1.857c-.49.532-1.107.813-1.85.844a3.754 3.754 0 0 1-1.192-.16c-.31.384-.762.705-1.357.962a5.478 5.478 0 0 1-1.73.35c-.79.033-1.423-.104-1.901-.41-.548.255-1.263.4-2.145.437a10.117 10.117 0 0 1-3.367-.42c-1.084-.328-1.944-.875-2.58-1.64-1.11.14-2.05-.078-2.818-.651-.665-.345-1.1-.746-1.305-1.203-1.753-.766-2.652-2.264-2.697-4.495-.859-.523-1.512-1.125-1.958-1.804-.449-.726-.812-1.642-1.09-2.747-.387-.356-.592-.836-.617-1.44a2.933 2.933 0 0 1 .041-.7c-.435-.4-.667-.95-.696-1.646a2.46 2.46 0 0 1 .17-.984c-.68-.67-1.045-1.655-1.099-2.955-.047-1.162.17-2.078.655-2.749a2.617 2.617 0 0 1-.55-1.513c-.018-.418.08-.864.294-1.338-.244-.269-.383-.821-.417-1.657a9.662 9.662 0 0 1 .303-2.804c.24-.987.56-1.651.965-1.994-.15-.273-.236-.665-.257-1.175a6.174 6.174 0 0 1 .263-2.105c.252-.661.609-1.025 1.071-1.09-.04-.976.324-1.758 1.09-2.348-.073-.648.13-1.378.608-2.188.525-.813 1.13-1.373 1.816-1.68.097-1.027.48-1.904 1.148-2.629.668-.725 1.418-1.151 2.25-1.279.216-.427.62-.793 1.212-1.096.637-.352 1.257-.54 1.86-.565.465-.019.864.058 1.197.23.67-.679 1.446-1.036 2.328-1.072.743-.03 1.239.135 1.486.497.368-.108.691-.168.97-.18.836-.034 1.475.243 1.918.83.18-.148.456-.229.827-.244.65-.027 1.378.13 2.183.469.85.29 1.35.596 1.503.915.983.146 1.885.597 2.707 1.355.82.71 1.177 1.463 1.07 2.259.663.298 1.147.743 1.45 1.336.302.546.417 1.076.345 1.59.431.309.727.715.887 1.22.159.46.263.734.313.825.961.751 1.467 1.731 1.516 2.939.01.232-.024.535-.102.91.054.185.087.416.098.695.033.79-.242 1.475-.822 2.057a2.798 2.798 0 0 1-1.92.847c-.743.03-1.404-.222-1.985-.756-1.357-1.34-2.134-2.704-2.33-4.092a2.452 2.452 0 0 1-1.367-.99 3.082 3.082 0 0 1-.493-1.795 2.995 2.995 0 0 1-1.018-1.005 2.925 2.925 0 0 1-.266-1.385c-.836.035-1.497-.194-1.982-.686-.137.052-.392.086-.764.101a7.476 7.476 0 0 1-1.68-.14c-.612-.161-1.085-.351-1.42-.57-.183.054-.46.089-.832.104-.511.02-.862-.011-1.051-.097-.589.397-1.162.606-1.719.63-.186.007-.513-.026-.981-.1-.494.439-.972.691-1.434.756a5.722 5.722 0 0 1-.545 2.047c-.253.615-.61.978-1.071 1.09.115.554.045 1.115-.21 1.684a3.405 3.405 0 0 1-1.133 1.302c-.032.374-.133.75-.303 1.13a2.23 2.23 0 0 1-.665.794c.056.23.114.507.173.83.058.277.096.625.113 1.043.04.975-.347 1.758-1.16 2.35.025.604-.071 1.096-.288 1.477.251.455.386.915.405 1.38.02.464-.056.886-.227 1.265.298.453.455.888.472 1.306.017.418-.079.91-.288 1.478-.207.613-.324 1.176-.35 1.689.428.215.767.527 1.016.935.25.409.384.845.403 1.31.02.51-.1.98-.361 1.41.379.17.67.484.876.941.205.457.317.94.338 1.452.021.51-.054.932-.227 1.265 1.045.516 1.765 1.068 2.162 1.656.44.54.78 1.434 1.017 2.68.33.126.712.343 1.143.651.478.306.791.572.94.799.788-.079 1.608.073 2.461.457.898.336 1.523.822 1.874 1.459.27-.244.703-.448 1.301-.612a6.84 6.84 0 0 1 1.87-.356c.65-.026 1.095.048 1.335.225.618-.817 1.391-1.244 2.32-1.282.279-.011.489.003.63.044.718-.634 1.282-1.076 1.69-1.325a4.645 4.645 0 0 1 1.437-.687c.018-.699.27-1.384.754-2.055.03-.374.152-.82.363-1.34.21-.568.425-.995.646-1.283-.053-.138-.085-.37-.099-.694-.024-.604.111-1.261.408-1.971.295-.757.643-1.329 1.046-1.718Z" fill="#C62E2A"/><path d="M76.43 51.763c.467.027.894.242 1.283.645.389.403.686.856.893 1.36.253.5.338.87.255 1.105.58.535.887 1.22.921 2.056.029.697-.177 1.333-.62 1.91-.396.528-.941.852-1.634.974-.834.08-1.708-.233-2.62-.94-.913-.706-1.433-1.476-1.56-2.308-.571-.302-1.205-.998-1.9-2.086-.65-1.09-.99-1.983-1.018-2.68-.574-.395-1.137-1.07-1.688-2.024-.553-1-.748-1.783-.585-2.349a5.319 5.319 0 0 1-1.612-1.887 6.882 6.882 0 0 1-.59-2.488c-.701-.065-1.301-.505-1.8-1.322-.452-.82-.694-1.623-.727-2.413-.427-.215-.79-.549-1.088-1.002-.297-.453-.456-.912-.475-1.376-.011-.279.07-.561.245-.848a2.804 2.804 0 0 1-1.446.478c-.511.021-1.073-.072-1.687-.28a7.579 7.579 0 0 1-2.078.365c-.65.027-1.096-.071-1.338-.294-.697.029-1.24-.159-1.628-.561-.342-.405-.527-.933-.554-1.583a3.439 3.439 0 0 1 .35-1.689c.304-.524.643-.77 1.016-.74.09-.096.318-.199.686-.307.367-.108.76-.17 1.178-.188.743-.03 1.281.04 1.614.213a11.06 11.06 0 0 1 2.012-.292c.65-.026 1.049.05 1.196.23.493-.438.996-.668 1.507-.69.371-.014.675.02.91.103.264-.383.784-.753 1.56-1.11.821-.407 1.49-.55 2.007-.432.168-.426.483-.694.943-.806.46-.159.9-.2 1.321-.124-.017-.418.105-.842.367-1.271.261-.43.577-.675.947-.737a6.625 6.625 0 0 1-.353-1.8c-.027-.65.045-1.165.215-1.544a2.123 2.123 0 0 1-.664-.88 2.86 2.86 0 0 1-.051-1.254c-.625-.486-1.04-.958-1.245-1.415-.559-.023-1.058-.282-1.497-.776-.6.118-1.09.068-1.471-.149a5.9 5.9 0 0 1-1.08-.793l-.797-.735c-.723.542-1.571.832-2.547.872-1.022.042-1.824-.227-2.406-.808-.356.387-.975.598-1.858.634-.836.035-1.517-.123-2.043-.474-.356.387-.93.596-1.719.629-.79.032-1.422-.082-1.898-.341.26.687.41 1.495.448 2.424.033.79-.056 1.468-.265 2.035a6.29 6.29 0 0 1 .663 2.554c.036.883-.123 1.54-.477 1.974a3.85 3.85 0 0 1 .489 1.724c.027.65-.137 1.192-.492 1.626.482.399.744 1.109.786 2.13.036.883-.054 1.538-.269 1.966.246.315.454.842.623 1.58.17.737.27 1.477.3 2.22.028.65-.021 1.164-.145 1.541.1.182.207.527.321 1.034.112.46.179.946.2 1.457.041 1.022-.07 1.724-.333 2.107.499.817.766 1.644.8 2.48.026.65-.134 1.285-.48 1.904.597.952.923 2.102.979 3.449.047 1.16-.15 2.006-.594 2.536.361.87.562 1.792.602 2.767.045 1.115-.195 2.055-.722 2.821-.529.72-1.42 1.105-2.674 1.157-.743.03-1.363-.34-1.86-1.11-.45-.773-.697-1.67-.739-2.692-.036-.882.052-1.584.263-2.104-.408-.867-.633-1.835-.677-2.903-.038-.93.07-1.678.326-2.247-.425-1.285-.657-2.415-.697-3.39-.04-.976.115-1.727.466-2.253-.38-.17-.694-.46-.943-.869a3.904 3.904 0 0 1-.339-1.451c-.038-.929.188-1.66.678-2.191-.191-.132-.364-.358-.516-.677a4.583 4.583 0 0 1-.185-1.109c-.038-.929.104-1.423.427-1.483-.145-.134-.275-.477-.39-1.03a10.59 10.59 0 0 1-.212-1.737c-.034-.836.01-1.489.13-1.959-.441-.54-.68-1.275-.719-2.203-.03-.744.084-1.353.344-1.829-.296-.406-.458-.958-.487-1.655a3.06 3.06 0 0 1 .55-1.907c-.311-.778-.478-1.446-.5-2.003-.028-.65.16-1.193.56-1.628-.29-.267-.468-.632-.533-1.095a19.417 19.417 0 0 1-.141-1.738c-.702-.111-1.25-.414-1.642-.91a2.89 2.89 0 0 1-.63-1.719c-.032-.79.196-1.473.684-2.052.533-.626 1.241-.934 2.126-.924-.056-.23.19-.45.74-.659.596-.21 1.22-.329 1.87-.355 1.022-.042 1.706.186 2.052.683.275-.104.644-.166 1.109-.185.65-.027 1.095.048 1.335.224.544-.348 1.234-.539 2.07-.573.975-.04 1.68.14 2.116.541.917-.317 1.678-.487 2.281-.512.883-.036 1.566.168 2.05.614.64-.26 1.448-.409 2.423-.449.744-.03 1.399.06 1.965.269.565.163.95.45 1.152.86.138-.052.346-.084.624-.096.604-.024 1.148.186 1.631.631.528.397.899.917 1.111 1.56.888.103 1.534.542 1.938 1.316.84.059 1.436.406 1.788 1.043.396.589.611 1.301.645 2.137.553 1 .848 1.943.884 2.825.029.697-.11 1.284-.416 1.762.208.55.324 1.103.347 1.66a3.331 3.331 0 0 1-.745 2.264c.03.743-.148 1.495-.535 2.255-.39.714-.929 1.178-1.618 1.392a2.927 2.927 0 0 1-.915 1.503c-.45.39-1 .6-1.65.626a2.15 2.15 0 0 1-.94.876 9.723 9.723 0 0 1-1.45.409c-.506.113-.92.223-1.242.33.28.035.524.28.728.737.203.41.238.688.104.834.376.077.764.48 1.166 1.208.4.681.541 1.28.423 1.797.704.157 1.257.577 1.657 1.258.446.68.689 1.484.727 2.413.58.534 1.073 1.212 1.479 2.032.406.821.6 1.604.585 2.35a3.648 3.648 0 0 1 1.74 1.603c.402.727.575 1.535.518 2.42Z" fill="#64A7DE"/><path d="M108.07 9.71c.451-.343 1.048-.53 1.791-.561 1.068-.044 2.151.26 3.248.914.511-.021.937.17 1.279.575.343.405.526.909.551 1.513a3.336 3.336 0 0 1-.611 2.118c-.44.623-1.078.952-1.914.986-.603.025-1.261-.134-1.973-.477-.356.386-.837.592-1.44.617-.651.027-1.334-.178-2.049-.614-.455.252-1.147.396-2.076.434-1.347.056-2.4-.11-3.161-.498a5.052 5.052 0 0 1-2.14.576 5.476 5.476 0 0 1-1.753-.207 4.849 4.849 0 0 1-1.727.42c-.743.03-1.495-.148-2.255-.536-.817.499-1.549.808-2.195.928a6.71 6.71 0 0 1 .593 2.557c.048 1.161-.17 2.1-.652 2.818.594.86.912 1.824.956 2.892.034.836-.14 1.68-.524 2.534.437.447.67 1.02.698 1.716.02.464-.12 1.028-.419 1.692.409-.25.915-.387 1.519-.411.464-.02.791.014.98.099a2.785 2.785 0 0 1 1.65-.626c.604-.025 1.218.206 1.843.692.552-.162 1.013-.25 1.385-.266.232-.01.629.02 1.19.09.553-.115.946-.178 1.178-.187.79-.033 1.378.13 1.765.486.362-.248.775-.381 1.24-.4.557-.023.91.079 1.059.305.412-.156.734-.239.967-.249.325-.013.77.062 1.335.225.59-.35 1.164-.536 1.721-.56.79-.032 1.476.243 2.058.823.58.535.885 1.15.913 1.847a2.085 2.085 0 0 1-.564 1.559c-.401.435-1.042.694-1.922.776-.395.575-1.081.882-2.056.922-.882.036-1.681-.164-2.397-.6-.446.484-1.109.744-1.992.78-.789.032-1.447-.127-1.973-.477-.361.294-.75.45-1.168.466a.948.948 0 0 1-.708-.25c-.492.486-1.179.746-2.061.783a3.996 3.996 0 0 1-1.829-.344c-.455.251-.845.383-1.17.397-.464.019-.935-.125-1.413-.43-.318.198-.568.325-.752.38-.184.053-.44.064-.766.03.452.82.687 1.461.707 1.925.017.418-.103.912-.359 1.48.34.359.522.817.545 1.374.017.418-.08.864-.294 1.338.34.358.523.84.548 1.443.023.557-.12 1.028-.43 1.413.3.546.458.982.472 1.307.011.279-.156.75-.5 1.416.193.178.296.43.31.755.017.418-.111.702-.384.853.481.4.736.924.762 1.574.01.232-.02.629-.09 1.19l.415-.087c.51-.02 1.054.19 1.63.631.676-.54 1.572-.832 2.686-.878.418-.017.861.011 1.33.085.265-.336.649-.608 1.152-.815a4.867 4.867 0 0 1 1.661-.347c.975-.04 1.727.139 2.255.536.26-.476.732-.868 1.417-1.175a5.604 5.604 0 0 1 2.073-.504c.511-.02.932.032 1.263.158.499-.3.958-.458 1.376-.475.743-.03 1.406.244 1.988.825.582.581.889 1.267.922 2.056.04.976-.37 1.76-1.23 2.353-.17.38-.528.72-1.074 1.022a4.668 4.668 0 0 1-1.797.422c-.651.027-1.166-.068-1.547-.285-.357.386-.831.732-1.423 1.035a5.026 5.026 0 0 1-1.798.423c-.928.038-1.659-.188-2.191-.678-.755.868-1.76 1.328-3.014 1.38-.232.01-.628-.021-1.19-.091-.906.595-1.8.911-2.682.947-.697.029-1.308-.132-1.835-.483-.478.81-1.205 1.236-2.18 1.276-.836.034-1.593-.26-2.27-.884-.63-.625-.87-1.383-.721-2.273-.29-.267-.516-.677-.678-1.228a6.874 6.874 0 0 1-.278-1.664c-.017-.418-.006-.72.032-.908-.628-.58-.972-1.589-1.03-3.029a6.343 6.343 0 0 1 .14-1.68c.116-.563.262-.965.439-1.205a3.231 3.231 0 0 1-.409-1.448c-.01-.232.025-.536.102-.912-.435-.4-.667-.95-.695-1.646-.027-.65.115-1.168.425-1.553-.252-.455-.385-.868-.4-1.24-.021-.51.121-1.005.428-1.482-.406-.821-.625-1.626-.658-2.416-.04-.975.224-1.917.792-2.824-.304-.592-.59-1.325-.858-2.198a12.2 12.2 0 0 1-.382-2.496c-.06-1.487.246-2.523.92-3.108-.274-1.013-.412-1.542-.414-1.589-.325-1.103-.497-1.887-.516-2.351-.028-.697.1-1.54.385-2.528-.245-.316-.453-.842-.623-1.58-.17-.737-.238-1.27-.205-1.596a2.755 2.755 0 0 1-.919-1.986 2.786 2.786 0 0 1 .489-1.695 2.987 2.987 0 0 1 1.557-1.18c.311-.34.742-.613 1.292-.821a4.488 4.488 0 0 1 1.727-.42c.79-.032 1.472.149 2.046.544a8.365 8.365 0 0 1 2.355-.445c1.114-.046 2.03.172 2.748.655.41-.203.894-.316 1.452-.34.51-.02.91.08 1.198.3.27-.243.938-.387 2.007-.43 1.393-.058 2.494.13 3.302.562.49-.532 1.107-.813 1.85-.844.465-.019 1.003.075 1.617.283Z" fill="#333B8B"/><path d="m158.85 49.08 1.204.44c.85.29 1.219 1.368 1.11 3.234.201.364.311.778.33 1.242.03.743-.247 1.36-.831 1.849-.585.49-1.272.75-2.062.782-.697.029-1.309-.155-1.837-.552-.483-.446-.742-1.087-.777-1.922-.514-.072-1.065-.445-1.651-1.12-.541-.721-.827-1.454-.857-2.197-.008-.186.027-.466.105-.842-.474-.213-.911-.66-1.311-1.342-.356-.73-.62-1.486-.791-2.27-.172-.784-.241-1.34-.208-1.666-.616-.254-1.131-.908-1.546-1.96-.371-1.102-.526-2.05-.466-2.843-.319.153-.711.239-1.176.258-.928.038-1.799-.206-2.611-.73-.58.628-1.473.967-2.68 1.017-1.115.045-1.916-.201-2.403-.74-.583.536-1.223.818-1.92.847-.557.023-1.003-.075-1.338-.294-.315.245-.798.382-1.448.408a5.262 5.262 0 0 1-1.684-.21c-.565-.163-1.016-.4-1.355-.712-.046.002-.161.053-.342.154.314.87.486 1.655.515 2.351.043 1.069-.453 2.02-1.488 2.853.201.364.312.801.333 1.312.041 1.022-.267 2.011-.925 2.969-.659.957-1.312 1.496-1.958 1.615.203.41.316.895.339 1.452.051 1.254-.319 2.432-1.111 3.535-.795 1.056-1.795 1.609-3.003 1.658-.325.014-.581 0-.769-.038-.604.025-1.076-.142-1.416-.5-.341-.358-.523-.84-.548-1.443-.017-.418.079-.91.288-1.478-.054-.184-.088-.461-.104-.833-.038-.929.393-1.76 1.294-2.495-.052-.138-.084-.346-.096-.624-.028-.697.106-1.4.402-2.11.341-.759.786-1.265 1.334-1.52-.051-.092-.082-.3-.096-.625-.032-.79.116-1.703.446-2.74.328-1.083.721-1.704 1.18-1.862-.177-2.04.412-4.135 1.766-6.284a9.01 9.01 0 0 1 .365-3.015c.285-.99.837-1.71 1.656-2.162.01-.884.183-1.775.518-2.673.336-.898.723-1.658 1.163-2.28a5.308 5.308 0 0 1-.266-1.386c-.027-.65.068-1.165.285-1.547.262-.429.553-.697.874-.803-.054-.184-.088-.462-.104-.833-.042-1.022.297-1.85 1.015-2.484l-.087-.415c-.028-.697.225-1.335.759-1.916a3.296 3.296 0 0 1-.101-.763c-.034-.836.14-1.68.524-2.534.384-.853.825-1.43 1.325-1.729.788-1.195 1.647-1.812 2.576-1.85.418-.017.958.1 1.619.352 1.349-.009 2.367.996 3.055 3.015.439.494.766 1.085.98 1.774.212.643.307 1.244.283 1.803.43.262.747.62.952 1.078.251.454.364.938.338 1.451.482.4.903 1.033 1.265 1.902.407.867.627 1.696.66 2.485.015.372.002.628-.038.77.338.311.636.764.893 1.359.303.592.465 1.144.486 1.655.012.278-.003.488-.044.63.621.393 1.136 1.023 1.543 1.89.455.865.769 1.736.945 2.613.22.829.29 1.407.211 1.736.098.136.368.474.809 1.014a6.447 6.447 0 0 1 1.041 1.562c.253.502.389.984.408 1.449.017.418-.017.722-.102.911.195.225.416.495.661.81.244.27.44.517.589.744.149.227.23.502.243.827.014.326 0 .559-.041.7.387.356.732.83 1.036 1.423.303.592.466 1.167.489 1.724.019.465-.059.817-.236 1.057.527.35.943.868 1.25 1.554a4.09 4.09 0 0 1 .365 2.078Zm-13.439-14.592c.081-.282.284-.453.607-.513.321-.106.601-.095.839.035-.104-.275-.159-.482-.165-.621-.015-.372.066-.654.244-.848a3.97 3.97 0 0 1-1.096-1.21 3.01 3.01 0 0 1-.342-1.522c-.329-.08-.64-.3-.934-.66a2.692 2.692 0 0 1-.403-1.309c-.005-.14.031-.396.108-.772-1-.564-1.525-1.45-1.574-2.657-.019-.464.029-1.001.143-1.61a4.075 4.075 0 0 0-.36-.265c-.193-.178-.274-.454-.243-.828-.94-.24-1.412-.965-1.415-2.175-.379-.17-.695-.506-.949-1.008.137 1.065-.247 1.918-1.151 2.56.068.509-.001 1.093-.207 1.753-.206.66-.464 1.159-.776 1.497.054.184.09.485.107.903.044 1.068-.34 2.503-1.15 4.304-.211.52-.378.993-.5 1.416-.167.472-.356.945-.57 1.42-.166.471-.408.83-.723 1.076.019.464-.057.886-.227 1.265l.554-.092c.465-.02.818.082 1.059.305.13-.238.404-.365.822-.382.279-.012.491.05.636.183.54-.441 1.228-.679 2.064-.713a4.857 4.857 0 0 1 1.683.21c.519.165.947.403 1.286.715.443-.53.921-.805 1.431-.826.326-.014.726.11 1.202.37Z" fill="#5A308C"/><path d="M191.26 6.578c.633-.445 1.368-.684 2.204-.718.65-.027 1.19.09 1.619.352.922-.224 1.698-.023 2.328.602.675.577 1.03 1.284 1.064 2.12a2.26 2.26 0 0 1-.695 1.773c-.445.484-1.133.744-2.061.783-.604.024-1.071-.003-1.4-.083-.493.44-1.205.678-2.133.716-1.022.042-1.96-.129-2.813-.513-.271.197-.775.381-1.513.55-.737.17-1.454.27-2.151.298a5.184 5.184 0 0 1-1.259-.088c.396.589.613 1.348.651 2.277.04.975-.141 1.657-.544 2.046.731.807 1.124 1.884 1.179 3.231a5.37 5.37 0 0 1-.457 2.461c.516 1.235.799 2.457.848 3.664.033.79-.032 1.49-.193 2.102.244.269.448.702.612 1.3.21.597.328 1.197.353 1.8.028.697-.086 1.307-.344 1.829.723.622 1.114 1.63 1.171 3.022.038.93-.048 1.677-.257 2.244.445.633.688 1.46.73 2.482.025.604-.07 1.143-.283 1.617.25.408.389.984.42 1.727.028.697-.043 1.235-.213 1.614.483.446.746 1.18.788 2.201.017.418-.036.816-.16 1.193.632.672.916 1.358.852 2.059.255.547.39 1.007.405 1.379.033.79-.243 1.452-.825 1.987-.583.536-1.27.82-2.059.853a2.724 2.724 0 0 1-1.622-.422c-.434-.355-.735-.9-.905-1.638-.338-.312-.613-.766-.824-1.362a5.943 5.943 0 0 1-.35-1.73 4.325 4.325 0 0 1 .097-1.051c-.532-.49-.825-1.385-.878-2.686-.025-.604.005-1.023.088-1.26-.445-.633-.677-1.181-.696-1.646-.026-.65.205-1.241.695-1.773-.669-.438-1.024-1.144-1.064-2.12-.032-.79.129-1.4.483-1.834-.665-.345-1.03-1.307-1.095-2.886-.036-.882.028-1.583.193-2.101-.244-.27-.47-.679-.678-1.228a8.06 8.06 0 0 1-.284-1.803c-.026-.65.047-1.142.219-1.475-.452-.819-.702-1.809-.75-2.97-.028-.696.023-1.699.156-3.007a8.215 8.215 0 0 1-.605-2.836c-.038-.93.07-1.701.324-2.316-.58-.535-.901-1.545-.962-3.031a7.779 7.779 0 0 1 .132-1.89c-.5.3-1.005.46-1.516.48a3.234 3.234 0 0 1-1.477-.288c-.317.2-.755.31-1.312.333-.929.039-1.588-.144-1.977-.547-.222.242-.563.442-1.022.6a5.061 5.061 0 0 1-1.454.27c-1.161.047-1.962-.2-2.403-.74a7.088 7.088 0 0 1-1.112.116c-1.161.048-2.029-.126-2.603-.521-.575-.395-.876-.941-.905-1.638-.032-.79.309-1.548 1.023-2.275.713-.774 1.58-1.181 2.602-1.223.464-.02 1.003.075 1.617.282.354-.433 1.065-.671 2.134-.715.882-.036 1.562.099 2.04.405.358-.34 1.002-.53 1.931-.568a7.162 7.162 0 0 1 1.75.138c.609.114 1.058.282 1.346.503.306-.478 1.156-.746 2.55-.803 1.254-.051 2.052.125 2.394.53.356-.387.999-.6 1.928-.637.882-.037 1.448.15 1.697.558.541-.44 1.345-.683 2.413-.727 1.208-.05 2.147.168 2.818.652Z" fill="#272425"/><path d="M213.439 15.299c.27.92.418 1.68.442 2.285.01.232-.013.814-.068 1.747.252.455.397 1.17.437 2.145.035.836-.055 1.491-.268 1.965.251.455.386.892.403 1.31.024.604-.161 1.193-.556 1.767.358.776.553 1.582.588 2.418.026.65-.06 1.375-.26 2.174.298.454.461 1.028.489 1.725.029.697-.102 1.47-.393 2.32.393.495.6 1.021.623 1.578.023.558-.141 1.1-.492 1.626.2.317.308.685.325 1.103.017.418-.081.864-.294 1.338.398.635.604 1.115.617 1.44.012.279-.135.68-.439 1.204.213.643.325 1.127.339 1.452.028.697-.202 1.311-.692 1.843.597.952.924 2.125.981 3.519.071 1.718-.368 2.922-1.317 3.613-.451.344-.932.526-1.443.547-.882.037-1.642-.328-2.278-1.093a4.811 4.811 0 0 1-.947-2.682 4.168 4.168 0 0 1 .154-1.333c-.44-.54-.682-1.32-.724-2.343-.042-1.021.137-1.773.536-2.255-.103-.228-.162-.551-.179-.97a3.265 3.265 0 0 1 .038-.768c-.248-.362-.384-.845-.409-1.45-.03-.742.13-1.377.481-1.903-.387-.356-.593-.837-.618-1.44-.017-.418.081-.864.294-1.338-.201-.364-.318-.964-.353-1.8-.042-1.022.164-1.682.617-1.98-.499-.816-.764-1.62-.797-2.41a2.2 2.2 0 0 1 .3-1.198c-.352-.637-.545-1.373-.579-2.21-.04-.975.159-1.797.597-2.466-.203-.41-.312-.802-.328-1.173-.013-.325.111-.702.373-1.132a2.783 2.783 0 0 1-.626-1.649c-.021-.51.104-.865.375-1.062-.34-.358-.526-.91-.556-1.652-.023-.558.099-.981.366-1.271-.444-.633-.691-1.554-.741-2.761-.044-1.069.088-1.818.396-2.25-.448-.726-.692-1.553-.73-2.482-.034-.836.127-1.447.483-1.834.014-.792.291-1.431.829-1.918a2.797 2.797 0 0 1 1.919-.847c.511-.02.981.1 1.411.361.903.475 1.377 1.246 1.421 2.315.036.882-.161 1.75-.591 2.606.647 1.043.998 2.215 1.051 3.516.027.65-.042 1.234-.207 1.753Z" fill="#CB2229"/><path d="M255.492 2.339c.797.153 1.416.5 1.857 1.04.441.54.676 1.182.707 1.925.047 1.161-.352 2.201-1.198 3.12.385.31.593.86.626 1.649a6.187 6.187 0 0 1-.391 2.389c-.293.803-.621 1.305-.985 1.505.489.585.754 1.365.794 2.34a5.815 5.815 0 0 1-.455 2.532c-.294.756-.716 1.239-1.266 1.447.298.453.462 1.051.492 1.794a5.002 5.002 0 0 1-.274 1.826c-.209.567-.517.998-.924 1.294.196.225.306.639.33 1.243a5.512 5.512 0 0 1-.396 2.249c-.296.71-.74 1.24-1.33 1.59.39.449.598.976.623 1.58.026.65-.109 1.306-.408 1.97-.254.615-.607 1.072-1.06 1.37.351.636.545 1.396.582 2.278.04.976-.062 1.91-.304 2.804-.243.894-.588 1.536-1.038 1.927.112.46.173.807.183 1.04.038.928-.324 1.757-1.085 2.486.07.556-.041 1.258-.332 2.107-.246.801-.546 1.442-.898 1.921.127.833-.192 1.567-.957 2.203-.718.634-1.588.972-2.61 1.014-.975.04-1.824-.227-2.545-.803-.723-.621-1.159-1.604-1.307-2.947a3.817 3.817 0 0 1-1.375-1.2 3.415 3.415 0 0 1-.56-1.721 2.631 2.631 0 0 1 .167-1.054 2.823 2.823 0 0 1-1.37-1.06 2.848 2.848 0 0 1-.35-1.73c-.679-.67-1.042-1.586-1.09-2.747-.02-.511-.012-.883.024-1.118-.713-.389-1.269-.901-1.668-1.536a5.074 5.074 0 0 1-.576-2.14c-.017-.418-.006-.72.033-.909-.909-.614-1.39-1.548-1.441-2.802a5.369 5.369 0 0 1 .029-.978c-.472-.166-.884-.568-1.235-1.205-.308-.685-.451-1.354-.431-2.006-.383-.264-.754-.784-1.111-1.56-.36-.822-.554-1.582-.582-2.279-1.037-.33-1.583-1.168-1.639-2.515a6.222 6.222 0 0 1 .091-1.19c-1.099-.699-1.666-1.49-1.702-2.372a2.895 2.895 0 0 1 .041-.7c-.339-.312-.634-.718-.888-1.22-.255-.547-.393-1.077-.414-1.588-.009-.232.027-.49.108-.772-.427-.215-.792-.595-1.093-1.141a5.024 5.024 0 0 1-.423-1.797c-.03-.743.113-1.214.431-1.414-.592-.813-.901-1.544-.928-2.195-.03-.743.2-1.357.692-1.842.492-.486 1.11-.744 1.853-.774.836-.035 1.571.307 2.205 1.026.681.716 1.074 1.793 1.179 3.231.573.349 1.038.912 1.396 1.688.402.728.618 1.463.648 2.206.014.325.001.582-.038.77.429.261.77.62 1.021 1.074.249.409.384.845.403 1.31.021.51-.077.956-.294 1.338 1.145.697 1.74 1.603 1.786 2.718.01.232-.023.582-.096 1.05.379.17.695.507.948 1.008.3.5.462 1.051.487 1.655.013.325 0 .582-.039.77.954.565 1.462 1.614 1.525 3.147.517.118 1.048.585 1.593 1.4.543.769.833 1.594.869 2.477l-.044.63c.48.352.876.94 1.189 1.765.311.778.435 1.517.37 2.218.432.308.729.761.893 1.36.209.549.377 1.24.504 2.072.524.304.914.73 1.169 1.278.3.5.414 1.03.344 1.59.538.63.822 1.316.853 2.06.226-.15.358-.34.395-.575-.233-2.27.058-3.678.873-4.223-.344-.451-.53-1.025-.559-1.722a3.997 3.997 0 0 1 .28-1.686c.256-.569.542-.953.86-1.152a2.657 2.657 0 0 1-.174-.83 5.916 5.916 0 0 1 .207-1.753c.208-.614.47-1.02.788-1.219a3.143 3.143 0 0 1-.255-1.106c-.046-1.115.292-1.966 1.012-2.554-.244-.269-.378-.705-.403-1.309-.028-.697.082-1.422.33-2.177.293-.803.617-1.398.973-1.784-.26-.688-.403-1.333-.428-1.937-.053-1.3.32-2.409 1.12-3.326-.157-.412-.246-.897-.269-1.454-.038-.929.113-1.773.454-2.531.388-.76.907-1.154 1.557-1.18-.735-.9-1.119-1.769-1.154-2.605-.038-.929.325-1.735 1.087-2.417a4.85 4.85 0 0 1-.106-.903c-.035-.836.148-1.495.547-1.976.443-.53 1.083-.812 1.919-.847.232-.01.582.023 1.051.097Z" fill="#FFF12D"/><path d="M289.518 2.27c.451-.345 1.048-.532 1.791-.563 1.069-.044 2.151.26 3.248.914.511-.021.937.17 1.28.575.342.405.525.91.55 1.513a3.33 3.33 0 0 1-.611 2.119c-.439.622-1.077.951-1.913.985-.604.025-1.262-.134-1.974-.477-.356.387-.836.593-1.44.617-.65.027-1.333-.178-2.049-.614-.455.252-1.147.396-2.076.435-1.347.055-2.4-.111-3.16-.499a5.061 5.061 0 0 1-2.14.576 5.474 5.474 0 0 1-1.753-.207 4.847 4.847 0 0 1-1.728.42c-.743.03-1.494-.148-2.255-.536-.817.5-1.548.808-2.195.928a6.7 6.7 0 0 1 .594 2.558c.047 1.16-.17 2.1-.652 2.818a5.38 5.38 0 0 1 .956 2.891c.034.836-.141 1.68-.525 2.534.438.447.67 1.02.699 1.716.019.465-.121 1.029-.419 1.692.408-.25.914-.386 1.518-.411.465-.02.792.014.981.1a2.788 2.788 0 0 1 1.649-.627c.604-.024 1.218.206 1.843.692.552-.162 1.013-.25 1.385-.266.232-.01.629.02 1.19.091.554-.116.946-.178 1.179-.188.789-.032 1.377.13 1.764.486a2.32 2.32 0 0 1 1.24-.4c.557-.023.91.08 1.059.306.413-.157.735-.24.967-.25.325-.013.77.062 1.335.225.591-.35 1.164-.536 1.722-.56.789-.031 1.475.243 2.057.824.581.534.885 1.15.913 1.846a2.085 2.085 0 0 1-.564 1.559c-.401.435-1.041.694-1.922.777-.395.574-1.08.881-2.056.921-.882.037-1.681-.163-2.397-.6-.445.484-1.109.744-1.992.78-.789.033-1.447-.126-1.973-.477-.36.294-.749.45-1.167.466a.945.945 0 0 1-.708-.25c-.492.486-1.179.747-2.062.783a3.993 3.993 0 0 1-1.828-.344c-.455.251-.845.384-1.17.397-.465.02-.936-.124-1.414-.43-.317.199-.568.325-.752.38-.184.053-.439.064-.766.03.452.82.688 1.461.707 1.926.017.418-.102.911-.358 1.48.34.358.522.816.545 1.373.017.418-.081.864-.294 1.338.34.358.523.84.547 1.443.023.557-.12 1.029-.43 1.413.301.546.459.982.472 1.307.011.279-.155.75-.5 1.416.193.178.297.43.31.755.017.418-.111.703-.384.853.482.4.736.924.763 1.574.009.232-.021.629-.091 1.19l.415-.087c.511-.02 1.055.19 1.631.631.676-.54 1.571-.832 2.686-.877.418-.018.861.01 1.329.085.265-.337.65-.609 1.153-.815a4.863 4.863 0 0 1 1.66-.348c.976-.04 1.727.139 2.256.536.259-.476.732-.867 1.417-1.175a5.595 5.595 0 0 1 2.073-.503c.511-.021.931.031 1.262.157.5-.3.958-.458 1.376-.475.744-.03 1.406.245 1.988.826.582.58.89 1.266.922 2.055.04.976-.37 1.76-1.229 2.354-.171.379-.529.72-1.075 1.02a4.666 4.666 0 0 1-1.797.423c-.65.027-1.166-.068-1.547-.285-.356.387-.831.732-1.423 1.035a5.014 5.014 0 0 1-1.797.423c-.929.038-1.659-.188-2.191-.678-.756.869-1.76 1.328-3.014 1.38-.232.01-.629-.02-1.19-.09-.906.595-1.801.91-2.683.947-.697.028-1.308-.133-1.834-.483-.479.81-1.206 1.235-2.181 1.275-.836.035-1.592-.26-2.269-.884-.631-.625-.871-1.383-.722-2.273-.29-.267-.516-.677-.678-1.228a6.894 6.894 0 0 1-.278-1.664c-.017-.418-.006-.72.033-.908-.629-.58-.972-1.589-1.032-3.028a6.393 6.393 0 0 1 .141-1.681c.116-.563.263-.965.439-1.204a3.237 3.237 0 0 1-.408-1.45c-.01-.231.024-.535.102-.91-.435-.401-.667-.95-.696-1.647-.026-.65.115-1.168.425-1.552-.251-.455-.384-.869-.4-1.24-.021-.511.122-1.005.428-1.483-.406-.821-.625-1.626-.657-2.416-.04-.975.223-1.916.791-2.824-.303-.592-.589-1.325-.858-2.198a12.17 12.17 0 0 1-.381-2.496c-.061-1.486.245-2.522.919-3.108-.274-1.013-.412-1.542-.414-1.588-.324-1.104-.496-1.887-.515-2.352-.029-.697.099-1.54.385-2.528-.246-.316-.454-.842-.623-1.58-.17-.737-.239-1.27-.206-1.596a2.753 2.753 0 0 1-.918-1.986 2.787 2.787 0 0 1 .488-1.695 2.99 2.99 0 0 1 1.557-1.18c.312-.339.743-.612 1.292-.821a4.491 4.491 0 0 1 1.728-.42c.789-.032 1.471.15 2.046.544a8.366 8.366 0 0 1 2.354-.445c1.115-.046 2.031.172 2.749.655.41-.203.894-.316 1.451-.339.511-.02.911.079 1.199.3.269-.244.938-.388 2.006-.431 1.393-.058 2.494.13 3.303.562.49-.532 1.106-.813 1.849-.843.465-.02 1.004.075 1.617.282Z" fill="#309F85"/></svg>