<svg width="25" height="25" fill="none" xmlns="http://www.w3.org/2000/svg"><g clip-path="url(#a)"><path d="M24.076 12.038C24.076 5.39 18.686 0 12.038 0 5.389 0 0 5.39 0 12.038c0 6.008 4.402 10.988 10.157 11.892v-8.412H7.1v-3.48h3.057V9.386c0-3.017 1.797-4.684 4.547-4.684 1.316 0 2.694.236 2.694.236V7.9H15.88c-1.495 0-1.961.928-1.961 1.88v2.258h3.338l-.534 3.48H13.92v8.412c5.755-.904 10.157-5.884 10.157-11.892Z" fill="#1877F2"/><path d="m16.723 15.518.533-3.48h-3.338V9.781c0-.952.466-1.881 1.962-1.881h1.518V4.938s-1.378-.235-2.695-.235c-2.75 0-4.547 1.666-4.547 4.683v2.652H7.1v3.48h3.056v8.412c1.246.195 2.515.195 3.762 0v-8.412h2.805Z" fill="#fff"/></g><defs><clipPath id="a"><path fill="#fff" d="M0 0h24.076v24.076H0z"/></clipPath></defs></svg>