<svg width="26" height="25" fill="none" xmlns="http://www.w3.org/2000/svg"><path d="M13 2.168c3.217 0 3.598.014 4.863.07 1.175.052 1.81.25 2.233.414.56.217.964.48 1.383.898.423.424.682.823.898 1.383.165.423.362 1.063.414 2.233.056 1.27.07 1.65.07 4.863 0 3.216-.014 3.597-.07 4.862-.052 1.175-.25 1.81-.414 2.233-.216.56-.48.964-.898 1.383a3.702 3.702 0 0 1-1.383.898c-.423.164-1.062.362-2.233.414-1.27.056-1.65.07-4.862.07-3.217 0-3.598-.014-4.862-.07-1.176-.052-1.81-.25-2.234-.414a3.723 3.723 0 0 1-1.383-.898 3.703 3.703 0 0 1-.898-1.383c-.164-.423-.362-1.063-.413-2.233-.057-1.27-.071-1.65-.071-4.862 0-3.217.014-3.598.07-4.863.052-1.175.25-1.81.414-2.233.217-.56.48-.964.898-1.383a3.703 3.703 0 0 1 1.383-.898c.423-.164 1.063-.362 2.234-.413 1.264-.057 1.645-.071 4.862-.071ZM13 0C9.734 0 9.324.014 8.04.07 6.76.128 5.88.335 5.12.63c-.795.31-1.467.72-2.135 1.392a5.898 5.898 0 0 0-1.392 2.13c-.296.767-.503 1.641-.56 2.92-.056 1.289-.07 1.698-.07 4.966 0 3.268.014 3.677.07 4.96.057 1.28.264 2.16.56 2.92.31.796.72 1.468 1.392 2.136a5.883 5.883 0 0 0 2.13 1.387c.766.296 1.641.503 2.92.56 1.284.056 1.693.07 4.96.07 3.269 0 3.678-.014 4.962-.07 1.279-.057 2.158-.264 2.92-.56a5.883 5.883 0 0 0 2.13-1.387 5.883 5.883 0 0 0 1.387-2.13c.296-.767.503-1.641.56-2.92.056-1.284.07-1.693.07-4.961 0-3.268-.014-3.677-.07-4.961-.057-1.28-.264-2.159-.56-2.92a5.638 5.638 0 0 0-1.378-2.14 5.884 5.884 0 0 0-2.13-1.387c-.766-.296-1.64-.503-2.92-.56C16.678.015 16.27 0 13.001 0Z" fill="#EC3397"/><path d="M13 5.855a6.185 6.185 0 0 0-6.184 6.183A6.185 6.185 0 0 0 13 18.221a6.185 6.185 0 0 0 6.183-6.183A6.185 6.185 0 0 0 13 5.855Zm0 10.194a4.012 4.012 0 1 1 0-8.023 4.012 4.012 0 0 1 0 8.023ZM20.872 5.61a1.444 1.444 0 1 1-2.888 0 1.444 1.444 0 0 1 2.887 0Z" fill="#EC3397"/></svg>