<svg width="25" height="25" fill="none" xmlns="http://www.w3.org/2000/svg"><path d="M23.222 0H2.702A1.777 1.777 0 0 0 .923 1.777v20.521A1.777 1.777 0 0 0 2.7 24.076h20.521A1.777 1.777 0 0 0 25 22.299V1.777A1.777 1.777 0 0 0 23.222 0ZM8.1 20.51H4.48V9.011H8.1v11.497ZM6.287 7.417a2.078 2.078 0 1 1 2.09-2.076 2.048 2.048 0 0 1-2.09 2.077ZM21.442 20.52h-3.619v-6.282c0-1.852-.787-2.424-1.803-2.424-1.074 0-2.127.81-2.127 2.471v6.235h-3.62V9.02h3.481v1.594h.047c.35-.708 1.573-1.916 3.44-1.916 2.02 0 4.202 1.198 4.202 4.71l-.002 7.112Z" fill="#0A66C2"/></svg>