<svg width="489" height="40" fill="none" xmlns="http://www.w3.org/2000/svg"><path d="M20.159.89c5.263 0 9.797 1.872 13.604 5.616l-5.428 5.427c-2.302-2.271-5.012-3.407-8.13-3.407-3.179 0-5.889 1.136-8.129 3.407-2.255 2.256-3.383 4.973-3.383 8.153 0 3.18 1.128 5.898 3.383 8.153 2.225 2.256 4.934 3.383 8.13 3.383 2.35 0 4.487-.657 6.414-1.973 1.77-1.206 3.094-2.757 3.97-4.652H19.784v-7.26h19.454c.501 6.469-1.34 11.779-5.521 15.93-3.775 3.743-8.302 5.615-13.58 5.615-5.326 0-9.845-1.872-13.558-5.615C2.82 29.938.94 25.411.94 20.087c0-5.28 1.88-9.814 5.64-13.605C10.305 2.707 14.824.82 20.134.82l.024.07ZM53.207 1.125h7.612V39h-7.612V1.125ZM98.942 1.031v7.59H83.717v7.635h11.419v7.59H83.717v15.201h-7.613V1.031h22.838ZM137.676 1.125v7.542h-9.304V39h-7.636V8.667h-9.328V1.125h26.268ZM162.101 31.552c1.096 0 2.099-.384 3.007-1.151.94-.784 1.41-1.684 1.41-2.702 0-1.473-.877-2.6-2.632-3.384-.579-.266-1.37-.54-2.373-.822l-.61-.165-.564-.164c-.439-.11-.799-.211-1.081-.305-2.475-.846-4.496-2.154-6.062-3.924-1.754-1.958-2.632-4.159-2.632-6.602 0-3.196 1.136-5.921 3.407-8.177 2.256-2.24 4.981-3.36 8.177-3.36 2.898 0 5.427.956 7.589 2.867 2.161 1.88 3.438 4.237 3.83 7.072l-7.566 1.598c0-1.05-.376-1.95-1.128-2.702-.752-.752-1.644-1.128-2.678-1.128a3.715 3.715 0 0 0-2.726 1.128c-.767.767-1.151 1.676-1.151 2.725 0 1.473.83 2.647 2.491 3.524.61.33 1.37.635 2.279.917.297.094.673.211 1.127.352l.541.141.517.165c2.569.736 4.667 1.965 6.296 3.688 1.802 1.896 2.702 4.096 2.702 6.603 0 3.148-1.221 5.866-3.665 8.153-2.396 2.255-5.208 3.383-8.435 3.383-2.944 0-5.576-.948-7.894-2.843-2.318-1.911-3.697-4.276-4.135-7.096l7.565-1.597c0 1.018.47 1.919 1.41 2.702.908.752 1.919 1.127 3.031 1.127l-.047-.023ZM229.066 10.829a3.155 3.155 0 0 0-1.01-1.692 2.959 2.959 0 0 0-1.951-.705c-1.676 0-2.655.752-2.937 2.256-.078.407.188 1.198.799 2.373.893 1.739 1.833 3.266 2.82 4.582.564.767 1.331 1.66 2.302 2.678l1.293 1.34c.548.579 1.01 1.064 1.386 1.456.877.956 1.566 1.653 2.067 2.091.141-.673.235-1.48.282-2.42.016-.297.032-.728.047-1.292l.024-.681.023-.729 7.119-.094c-.109 4.449-.634 7.714-1.574 9.798l.259.164.282.188c.235.141.438.267.611.376.501.298.955.548 1.362.752 1.144.564 2.154.83 3.031.799l-.023 7.048c-1.629 0-3.266-.328-4.911-.986a25.419 25.419 0 0 1-1.997-.964 90.368 90.368 0 0 1-.916-.517l-.846-.516a6.545 6.545 0 0 1-1.151-.823c-1.41 1.614-3.368 2.741-5.874 3.384-1.786.454-3.399.68-4.84.68-3.525 0-6.509-1.19-8.952-3.57-2.428-2.35-3.642-5.216-3.642-8.6.047-2.193.603-3.97 1.668-5.333a35.257 35.257 0 0 1 3.36-3.736c.11-.11.321-.282.634-.517-.579-.799-1.112-1.856-1.597-3.172-.533-1.425-.815-2.694-.846-3.806 0-2.397.963-4.558 2.89-6.485.846-.846 1.966-1.605 3.36-2.279 1.613-.767 3.109-1.151 4.487-1.151 2.601 0 4.903.853 6.908 2.56 1.88 1.599 3.086 3.58 3.618 5.945l-7.565 1.598Zm-4.3 21.099c.768 0 1.684-.172 2.749-.517 1.128-.376 1.825-.768 2.091-1.175v.024a218.985 218.985 0 0 1-3.148-2.82c-1.676-1.504-3.039-3.125-4.088-4.863a17.243 17.243 0 0 0-2.045 1.762c-.673.673-.986 1.668-.939 2.984 0 .642.18 1.316.54 2.02a5.55 5.55 0 0 0 1.128 1.504c.736.72 1.973 1.08 3.712 1.08ZM303.15 25.678 321.688.232V39h-7.613V23.305L303.15 38.389l-10.949-15.084V39h-7.612V.232l18.561 25.446ZM359.834 1.031v7.59h-15.225v7.635h11.419v7.59h-11.419v7.636h15.225v7.565h-22.837V1.031h22.837ZM373.71 1.125h12.358c4.01 0 7.315 1.285 9.916 3.854 1.268 1.268 2.169 2.467 2.702 3.594.642 1.379.963 3.047.963 5.005v.987c0 2.553-.799 4.957-2.397 7.213-1.143 1.598-2.655 2.764-4.534 3.5L401.529 39h-9.305l-10.878-16.752V39h-7.613l-.023-37.875Zm13.087 18.021c1.378 0 2.561-.524 3.548-1.574.971-1.05 1.456-2.302 1.456-3.76 0-1.378-.501-2.591-1.503-3.641-1.034-1.002-2.601-1.504-4.699-1.504h-4.277v10.456h2.937v.023h2.538ZM446.818 33.666c-3.76 3.729-8.302 5.593-13.628 5.593-5.294-.016-9.813-1.88-13.557-5.593-3.759-3.759-5.639-8.286-5.639-13.58 0-5.278 1.88-9.813 5.639-13.604C423.408 2.707 427.927.82 433.19.82l-.023.094c5.2 0 9.742 1.872 13.627 5.615l-5.427 5.428c-2.287-2.256-5.005-3.384-8.153-3.384-3.196 0-5.906 1.128-8.13 3.384-2.255 2.287-3.383 5.004-3.383 8.153 0 3.18 1.128 5.897 3.383 8.153 2.24 2.24 4.95 3.36 8.13 3.36 3.195 0 5.92-1.128 8.176-3.384l5.428 5.427ZM468.306 1.125V16.28h12.664V1.125h7.589V39h-7.589V23.822h-12.664V39h-7.589V1.125h7.589Z" fill="#272525"/></svg>